<?xml version="1.0" encoding="UTF-8"?>
<svg version="1.1" xmlns="http://www.w3.org/2000/svg" width="622" height="638">
<path d="M0 0 C205.26 0 410.52 0 622 0 C622 210.54 622 421.08 622 638 C416.74 638 211.48 638 0 638 C0 427.46 0 216.92 0 0 Z " fill="#F7F9FC" transform="translate(0,0)"/>
<path d="M0 0 C2.28915748 3.43373622 3.40341226 6.9341444 4.6875 10.8125 C7.11013505 17.96164854 10.08765066 24.51248054 13.6796875 31.14453125 C15 34 15 34 15 38 C15.66 38 16.32 38 17 38 C17 38.99 17 39.98 17 41 C17.66 41 18.32 41 19 41 C19.83790789 42.78953185 20.67019396 44.58169695 21.5 46.375 C22.19609375 47.87160156 22.19609375 47.87160156 22.90625 49.3984375 C24 52 24 52 24 54 C24.66 54 25.32 54 26 54 C29 59.75 29 59.75 29 62 C29.66 62 30.32 62 31 62 C31 62.99 31 63.98 31 65 C31.66 65 32.32 65 33 65 C33.27972656 65.53367187 33.55945313 66.06734375 33.84765625 66.6171875 C36.68651977 71.89327468 39.84416112 76.78422308 43.3515625 81.640625 C45.02333855 84.033404 46.4997755 86.49703476 48 89 C49.15256093 90.67645226 50.31947392 92.34312129 51.5 94 C55.31583091 99.35555216 58.50444305 104.88613487 61.5234375 110.71875 C62.96183247 113.13793032 62.96183247 113.13793032 65.33203125 115.20703125 C68.79942547 118.83688025 70.95214 122.78368605 73.3125 127.1875 C73.78888916 128.06809082 74.26527832 128.94868164 74.75610352 129.85595703 C88.52026597 155.64730423 97.87311093 183.728713 89.39453125 213 C82.55990114 233.78462569 68.32751901 252.50791825 49 263 C48.05640625 263.53109375 47.1128125 264.0621875 46.140625 264.609375 C38.72270348 268.57344946 31.16928453 271.05913327 23 273 C22.28328125 273.17877686 21.5665625 273.35755371 20.828125 273.54174805 C5.38568193 277.07068582 -13.89867365 277.04578923 -29 272 C-29.68674805 271.77957031 -30.37349609 271.55914062 -31.08105469 271.33203125 C-42.44584265 267.61103528 -51.77182837 262.57596623 -61 255 C-62.48113281 253.80890625 -62.48113281 253.80890625 -63.9921875 252.59375 C-79.43252688 239.42027485 -91.44557138 218.30319354 -93.18652344 197.80371094 C-93.46437638 192.5153199 -93.28288147 187.28365051 -93 182 C-92.96390625 180.7521875 -92.9278125 179.504375 -92.890625 178.21875 C-91.40856787 157.46995013 -80.4896281 137.54289496 -70 120 C-69.34 120 -68.68 120 -68 120 C-67.88011719 119.43152344 -67.76023438 118.86304688 -67.63671875 118.27734375 C-66.14334322 112.93600673 -63.33992392 107.75398875 -58.9375 104.3125 C-55.75491558 101.8070612 -54.1043646 99.43712884 -52 96 C-51.38125 95.113125 -50.7625 94.22625 -50.125 93.3125 C-48.33328472 90.51953206 -46.75200796 87.7340215 -45.1875 84.8125 C-40.41113186 75.9369197 -34.86574604 67.48686535 -29.0625 59.25 C-27.3579087 56.56397735 -25.99304386 53.98346864 -24.625 51.125 C-22.61291991 46.98940154 -20.26180438 43.54995567 -17.41796875 39.953125 C-15.52558779 37.34653966 -14.18816155 34.58972412 -12.859375 31.6640625 C-12 30 -12 30 -10 28 C-9.43056423 26.0033771 -9.43056423 26.0033771 -9.0625 23.75 C-8.25189832 19.7608185 -6.9232534 16.60610013 -5 13 C-4.32060826 11.00428677 -3.65438441 9.00405227 -3 7 C-2.03991451 4.64731527 -1.02354171 2.32623116 0 0 Z " fill="#90DFEF" transform="translate(311,74)"/>
<path d="M0 0 C2.765625 0.16015625 2.765625 0.16015625 6 1 C11.46859888 7.33480824 13.95358985 14.84082898 15 23 C15.16677246 23.76022461 15.33354492 24.52044922 15.50537109 25.30371094 C18.5245142 41.76146833 16.70028669 61.64517634 10 77 C9.608125 78.0725 9.21625 79.145 8.8125 80.25 C-2.0663884 104.83850798 -25.31216822 121.73410944 -47 136 C-57.63225068 143.00421497 -68.0585667 150.03244549 -78 158 C-78.68320312 158.51691406 -79.36640625 159.03382813 -80.0703125 159.56640625 C-88.07025335 165.86232383 -93.40673824 175.05638937 -98 184 C-97.67 184.33 -97.34 184.66 -97 185 C-96.41605469 184.36384766 -96.41605469 184.36384766 -95.8203125 183.71484375 C-89.30188368 176.88100708 -81.80315031 171.81620034 -73.51171875 167.359375 C-70.49807929 165.72835395 -67.53264541 164.02144443 -64.5625 162.3125 C-60.65135057 160.06282779 -56.72799539 157.84202394 -52.765625 155.68359375 C-38.25708971 147.76926323 -23.79061737 139.53032116 -11 129 C-10.32839844 128.51015625 -9.65679687 128.0203125 -8.96484375 127.515625 C3.11663298 118.65733716 12.90333994 108.19613135 20 95 C20.54011719 94.01773438 21.08023438 93.03546875 21.63671875 92.0234375 C22.64161185 90.18577405 23.63825246 88.34356401 24.625 86.49609375 C25.89906687 84.18322803 27.25686189 81.96834063 28.6875 79.75 C31.88266811 74.72608616 33.86680882 69.86491314 35 64 C35.46984295 62.10183448 35.94956421 60.20609536 36.4375 58.3125 C37.38574236 54.57423686 38.24332804 50.85565393 38.9375 47.0625 C41.26794999 35.00242131 44.65559192 20.45446445 54 12 C56.3125 10.6875 56.3125 10.6875 58 10 C61.24376257 21.02879274 61.61661705 31.56535779 62 43 C62.03013184 43.86238281 62.06026367 44.72476563 62.09130859 45.61328125 C63.29568519 85.07387509 49.95990757 119.73751277 23.265625 148.671875 C-1.81232872 174.44163434 -34.94362353 189.85607655 -67 205 C-96.84979999 217.56223298 -96.84979999 217.56223298 -123 236 C-124.32 236 -125.64 236 -127 236 C-134.91229289 210.16869086 -133.25129084 180.97849004 -121 157 C-118.35148049 152.39723308 -115.27932829 148.17644583 -112 144 C-111.09314453 142.83791016 -111.09314453 142.83791016 -110.16796875 141.65234375 C-108.8505519 140.04003067 -107.43680589 138.50689398 -106 137 C-105.34 137 -104.68 137 -104 137 C-104 136.34 -104 135.68 -104 135 C-100.53197431 131.76675361 -96.7381575 128.91321732 -93 126 C-92.19433594 125.36835938 -91.38867188 124.73671875 -90.55859375 124.0859375 C-80.0307934 116.14361621 -68.53172439 109.47536306 -57.2109375 102.73828125 C-38.63452172 91.88276339 -38.63452172 91.88276339 -25 76 C-24.34 76 -23.68 76 -23 76 C-22.72800781 75.2575 -22.45601563 74.515 -22.17578125 73.75 C-21.06851333 71.1602438 -19.85425517 69.2516587 -18.1875 67 C-14.35821206 61.43953521 -12.21449283 55.33972062 -10 49 C-9.34 49 -8.68 49 -8 49 C-7.2263303 46.34741819 -6.82163183 43.73642315 -6.5 41 C-6.17614405 38.2522847 -5.69151253 35.67961105 -5 33 C-3.77925343 25.97601202 -3.70080268 18.94645308 -3.5703125 11.83007812 C-3.539375 10.88197266 -3.5084375 9.93386719 -3.4765625 8.95703125 C-3.45674316 8.10085205 -3.43692383 7.24467285 -3.41650391 6.36254883 C-2.92139829 3.55414491 -1.85201785 2.12911318 0 0 Z " fill="#9CC9EB" transform="translate(457,252)"/>
<path d="M0 0 C0 0.66 0 1.32 0 2 C0.66 2 1.32 2 2 2 C2.0093457 2.55123535 2.01869141 3.1024707 2.02832031 3.67041016 C2.25886641 14.63491117 2.95153711 25.32564605 4.9375 36.125 C5.10733398 37.05393066 5.27716797 37.98286133 5.45214844 38.93994141 C6.24025535 42.98330518 7.06362307 46.34505342 9 50 C10.24729912 53.06679157 11.46913205 56.14272048 12.68359375 59.22265625 C13.93684478 61.86675561 14.90032879 63.06184196 17 65 C18.27266 66.7125577 19.52032503 68.44382089 20.75 70.1875 C26.7327172 78.45868826 32.7062655 85.01539422 41 91 C41.77214844 91.56460938 42.54429687 92.12921875 43.33984375 92.7109375 C51.18932956 98.33406996 59.44683632 103.29731665 67.7421875 108.2265625 C95.62555919 124.79727237 120.19757744 144.065147 128.68725586 176.88232422 C132.5898235 193.40300343 134.86747157 219.26505686 127 235 C124.03367065 234.39720997 121.95610328 233.49882697 119.46875 231.78515625 C118.82292969 231.34623047 118.17710937 230.90730469 117.51171875 230.45507812 C116.84785156 229.99552734 116.18398438 229.53597656 115.5 229.0625 C114.1785338 228.15543533 112.85565743 227.250421 111.53125 226.34765625 C110.94923828 225.94554932 110.36722656 225.54344238 109.76757812 225.12915039 C106.17301654 222.83290076 104.41084298 222 100 222 C100 221.34 100 220.68 100 220 C98.35 219.34 96.7 218.68 95 218 C95 217.34 95 216.68 95 216 C93.845 215.67 92.69 215.34 91.5 215 C86.03096733 213.19426883 81.04183299 210.58919062 75.9309082 207.97021484 C72.39705152 206.16889925 68.9171142 204.49252521 65.1875 203.125 C57.67762332 200.2587304 50.6960662 196.17788374 43.62353516 192.38964844 C40.99453268 190.99710404 38.35063081 189.63839401 35.69921875 188.2890625 C24.33522013 182.48674585 13.5187833 176.22602039 3 169 C1.9275 168.26652344 0.855 167.53304687 -0.25 166.77734375 C-5.02514249 163.41008974 -9.31563392 159.9386384 -13.3359375 155.69921875 C-15.07562901 153.92277319 -16.90783318 152.3473401 -18.8125 150.75 C-31.68595627 139.59466458 -40.95046096 125.84655645 -49 111 C-49.83917969 109.48212891 -49.83917969 109.48212891 -50.6953125 107.93359375 C-61.06186224 88.37259161 -63.22181762 66.26005985 -63.25 44.5 C-63.25200409 43.74864777 -63.25400818 42.99729553 -63.256073 42.22317505 C-63.2634307 30.96845091 -62.90566221 19.94516284 -60 9 C-59 8 -59 8 -56.65625 7.70703125 C-54 8 -54 8 -52.15625 9.51171875 C-45.68067956 18.01854124 -41.63369935 27.31463206 -41.140625 38.07421875 C-41.1167799 40.08384545 -41.1167799 40.08384545 -40 42 C-39.93049459 43.54023996 -39.91547643 45.08334988 -39.9375 46.625 C-39.94652344 47.44226563 -39.95554687 48.25953125 -39.96484375 49.1015625 C-39.97644531 49.72804688 -39.98804687 50.35453125 -40 51 C-39.34 51 -38.68 51 -38 51 C-37.855625 52.134375 -37.71125 53.26875 -37.5625 54.4375 C-37.38828522 57.80777201 -37.38828522 57.80777201 -36 59 C-35.87625 60.3921875 -35.87625 60.3921875 -35.75 61.8125 C-35.16315485 66.61667298 -33.05885774 70.76963043 -31.05859375 75.1328125 C-30.00229197 77.99379222 -29.78455672 79.98379415 -30 83 C-29.01 83.33 -28.02 83.66 -27 84 C-26.67 85.98 -26.34 87.96 -26 90 C-25.11248047 90.0928125 -25.11248047 90.0928125 -24.20703125 90.1875 C-21.0595808 91.34620742 -20.35668745 93.13170652 -18.6875 96 C0.5463712 127.52894076 34.08258949 144.34731582 65.52734375 161.47265625 C77.19607311 167.85560992 88.10794102 175.05004188 98 184 C94.66944241 176.80741287 91.34408257 170.85304282 86 165 C86 164.34 86 163.68 86 163 C85.34 163 84.68 163 84 163 C82.30048123 161.36684614 80.63916354 159.69372325 79 158 C71.72584783 151.28716036 64.05635755 146.02157912 55.57006836 140.96411133 C49.4355229 137.3035588 43.69241082 133.31838063 38 129 C36.7343458 128.07377897 35.46731411 127.1494385 34.19921875 126.2265625 C18.76668623 114.93549764 5.08832608 102.75440077 -4.9375 86.25 C-5.48603638 85.34749512 -5.48603638 85.34749512 -6.0456543 84.42675781 C-9.98026045 77.69643782 -12.19030148 70.982619 -13.625 63.3125 C-13.86476562 62.05050781 -14.10453125 60.78851563 -14.3515625 59.48828125 C-14.56554687 58.33714844 -14.77953125 57.18601562 -15 56 C-15.2623645 54.81120239 -15.2623645 54.81120239 -15.5300293 53.59838867 C-18.18859487 38.89962849 -17.56147109 18.20802418 -10 5 C-6.97214358 1.40238566 -4.86023441 0 0 0 Z " fill="#7ED3F2" transform="translate(165,253)"/>
<path d="M0 0 C0.33 0 0.66 0 1 0 C1 44.22 1 88.44 1 134 C-51.14 134 -103.28 134 -157 134 C-157 133.67 -157 133.34 -157 133 C-156.33581055 132.9498877 -155.67162109 132.89977539 -154.98730469 132.84814453 C-138.54709247 131.59075057 -122.90946841 129.73829441 -106.95214844 125.51025391 C-105.16334419 125.04269502 -103.36709533 124.60386254 -101.5703125 124.16796875 C-83.29157324 119.45850534 -66.51104079 110.72519339 -52.09375 98.6015625 C-50 97 -50 97 -47 96 C-47 95.34 -47 94.68 -47 94 C-45.64453125 92.66796875 -45.64453125 92.66796875 -43.8125 91.1875 C-28.49996128 78.74397725 -18.06828334 60.98444573 -10.77294922 42.90527344 C-10.08142502 41.20070779 -9.35727458 39.50946298 -8.62890625 37.8203125 C-3.79988341 25.75527724 -2.14585429 12.75368831 0 0 Z " fill="#E2E4EE" transform="translate(621,504)"/>
<path d="M0 0 C4.70128945 1.37190653 7.04444148 3.93543478 9.875 7.75 C10.30627197 8.32419678 10.73754395 8.89839355 11.18188477 9.48999023 C17.5780553 18.26497062 22.07245719 27.55835862 24.3125 38.2265625 C24.98643722 40.94528653 25.95634839 43.11994846 27.1875 45.625 C30.56225919 53.50802528 30.26058496 64.83823025 28 73 C27.34 73 26.68 73 26 73 C25.89042969 73.63808594 25.78085937 74.27617187 25.66796875 74.93359375 C25.50941406 75.75988281 25.35085938 76.58617187 25.1875 77.4375 C25.03667969 78.26121094 24.88585937 79.08492188 24.73046875 79.93359375 C24.36888672 80.95646484 24.36888672 80.95646484 24 82 C22.515 82.495 22.515 82.495 21 83 C21.04640625 82.00742187 21.0928125 81.01484375 21.140625 79.9921875 C21.41187961 71.51180102 20.65319342 64.55443363 17.9921875 56.40625 C17.00260982 53.00895968 16.58679559 49.8908174 16.25 46.375 C14.57974409 32.93703196 7.65808969 20.21215757 2.08740234 7.99926758 C0.81006785 5.14034721 0 3.17138109 0 0 Z " fill="#C3F0FC" transform="translate(351,197)"/>
<path d="M0 0 C0.66 0 1.32 0 2 0 C1.5123335 3.12106557 0.75267009 5.56568789 -0.5234375 8.484375 C-2.50874925 13.69604144 -2.31611475 18.73840307 -2.3125 24.25 C-2.46243579 32.45381421 -3.25056789 38.16539481 -7.6328125 45.2734375 C-10.10649886 50.20667486 -9.98247262 55.56651067 -10 61 C-12.475 61.495 -12.475 61.495 -15 62 C-15.88890093 55.84937902 -16.21398976 49.8367663 -16.25 43.625 C-16.270625 42.74328125 -16.29125 41.8615625 -16.3125 40.953125 C-16.39151054 27.48182789 -10.66733249 14.95619319 -2.19921875 4.62109375 C-0.79283243 2.89511804 -0.79283243 2.89511804 0 0 Z " fill="#DFF9FD" transform="translate(258,212)"/>
<path d="M0 0 C0.66 0 1.32 0 2 0 C0.5458604 10.71908616 -6.8292634 22.19492901 -14 30 C-14.42796875 30.46889648 -14.8559375 30.93779297 -15.296875 31.42089844 C-21.85252014 38.5213465 -28.46723734 44.31841372 -37 49 C-37.94488281 49.53238281 -38.88976562 50.06476563 -39.86328125 50.61328125 C-47.28144129 54.5729084 -54.83229789 57.05950922 -63 59 C-63.71671875 59.17877686 -64.4334375 59.35755371 -65.171875 59.54174805 C-80.61431807 63.07068582 -99.89867365 63.04578923 -115 58 C-116.03012207 57.66935547 -116.03012207 57.66935547 -117.08105469 57.33203125 C-128.46936694 53.60333309 -137.6993437 48.51762893 -147 41 C-147.87140625 40.29875 -148.7428125 39.5975 -149.640625 38.875 C-153.51333789 35.625171 -153.51333789 35.625171 -155 34 C-155 33.34 -155 32.68 -155 32 C-154.01 32.33 -153.02 32.66 -152 33 C-152 33.66 -152 34.32 -152 35 C-151.401875 35.103125 -150.80375 35.20625 -150.1875 35.3125 C-147.68741714 36.09824033 -146.62464918 36.96918853 -145 39 C-145 39.66 -145 40.32 -145 41 C-144.319375 41.2475 -143.63875 41.495 -142.9375 41.75 C-138.79230064 43.51391462 -134.91472949 45.69450262 -131.1953125 48.23046875 C-123.23309146 53.59918625 -114.49334225 56.10440167 -105 57 C-104.67 57.33 -104.34 57.66 -104 58 C-95.02539307 59.00212732 -86.01576761 59.14339572 -77 58.75 C-76.2363916 58.72373535 -75.4727832 58.6974707 -74.68603516 58.67041016 C-69.77493952 58.40059318 -65.60176586 57.38800235 -61.00024414 55.64819336 C-58.29518155 54.77159856 -55.8157973 54.78340021 -53 55 C-53 54.34 -53 53.68 -53 53 C-50.03 52.34 -47.06 51.68 -44 51 C-44 50.34 -44 49.68 -44 49 C-43.43410156 48.89042969 -42.86820312 48.78085937 -42.28515625 48.66796875 C-41.55167969 48.50941406 -40.81820312 48.35085938 -40.0625 48.1875 C-39.33160156 48.03667969 -38.60070312 47.88585937 -37.84765625 47.73046875 C-37.23792969 47.48941406 -36.62820313 47.24835938 -36 47 C-35.67 46.01 -35.34 45.02 -35 44 C-32.28068666 41.98244494 -29.50528391 40.14671131 -26.66015625 38.31640625 C-22.91139905 35.92297347 -22.91139905 35.92297347 -21 32 C-19.35360035 30.64172029 -17.68704193 29.30745749 -16 28 C-15.67 27.34 -15.34 26.68 -15 26 C-14.34 26 -13.68 26 -13 26 C-12.87882813 25.36191406 -12.75765625 24.72382813 -12.6328125 24.06640625 C-12.46523438 23.24011719 -12.29765625 22.41382813 -12.125 21.5625 C-11.88136719 20.32693359 -11.88136719 20.32693359 -11.6328125 19.06640625 C-11.31957031 18.04353516 -11.31957031 18.04353516 -11 17 C-10.01 16.505 -10.01 16.505 -9 16 C-8.67 16.66 -8.34 17.32 -8 18 C-7.03654556 16.12762629 -6.07946898 14.2519701 -5.125 12.375 C-4.59132813 11.33085937 -4.05765625 10.28671875 -3.5078125 9.2109375 C-2.08545709 6.18198375 -0.9877999 3.19356666 0 0 Z " fill="#73BAEA" transform="translate(397,288)"/>
<path d="M0 0 C4.83552543 1.37294383 7.13684885 4.14324573 10 8.0625 C10.65246704 8.93878052 10.65246704 8.93878052 11.31811523 9.83276367 C16.42984251 16.8026043 21 23.08678233 21 32 C19.5625 35.5 19.5625 35.5 18 38 C17.34 38 16.68 38 16 38 C15.7525 37.484375 15.505 36.96875 15.25 36.4375 C14.27953523 34.5450937 13.21919634 32.69866056 12.125 30.875 C9.58020821 26.44274271 7.81697565 21.76626945 6 17 C5.56171875 15.88109375 5.1234375 14.7621875 4.671875 13.609375 C0.82283386 3.74344197 0.82283386 3.74344197 0 0 Z " fill="#E5FCFD" transform="translate(351,197)"/>
<path d="M0 0 C0.33 0 0.66 0 1 0 C0.99214478 1.3597998 0.99214478 1.3597998 0.98413086 2.74707031 C0.9669037 6.16895202 0.95446095 9.59078643 0.94506836 13.01269531 C0.94009544 14.48275488 0.93331473 15.95280965 0.92456055 17.42285156 C-0.1753095 33.32959244 -0.1753095 33.32959244 4 48 C4.99 48.66 5.98 49.32 7 50 C11.70262414 48.3772635 15.58940322 46.10750004 19.75 43.375 C25.35136033 39.86029311 31.08489877 36.88734355 37.0625 34.0625 C37.88395508 33.67304199 38.70541016 33.28358398 39.55175781 32.88232422 C43.02102754 31.2683596 46.25247432 29.83447353 50 29 C50 28.34 50 27.68 50 27 C51.32 27.33 52.64 27.66 54 28 C48.73385081 30.99956586 43.4186276 33.80858919 37.95849609 36.4375 C20.8645116 44.53390788 20.8645116 44.53390788 6 56 C4.68 56 3.36 56 2 56 C-1.6556781 44.06528619 -2.18729993 31.84736318 -2.25 19.4375 C-2.25918457 18.42695557 -2.26836914 17.41641113 -2.27783203 16.37524414 C-2.25374357 10.57040727 -1.66741911 5.56468043 0 0 Z " fill="#73A5E9" transform="translate(328,432)"/>
<path d="M0 0 C0.66 0.33 1.32 0.66 2 1 C0.96566873 1.94558687 -0.07794146 2.88102584 -1.125 3.8125 C-1.70507812 4.33457031 -2.28515625 4.85664063 -2.8828125 5.39453125 C-5.43521798 7.33002692 -8.12966166 8.58083643 -11 10 C-26.10688129 19.32332495 -40.57064577 32.21509463 -49 48 C-49.50402344 48.82371094 -50.00804687 49.64742188 -50.52734375 50.49609375 C-51.93403583 52.88784341 -53.08619719 55.26811076 -54.1875 57.8125 C-54.53167969 58.60269531 -54.87585938 59.39289063 -55.23046875 60.20703125 C-55.48441406 60.79871094 -55.73835938 61.39039063 -56 62 C-57.27612438 58.12428418 -56.44356484 56.12010384 -54.64941406 52.46606445 C-54.29073242 51.77601318 -53.93205078 51.08596191 -53.5625 50.375 C-53.19995117 49.6636792 -52.83740234 48.9523584 -52.46386719 48.21948242 C-49.30609773 42.21250036 -45.47991061 37.09166311 -41 32 C-40.30390625 31.08605469 -39.6078125 30.17210937 -38.890625 29.23046875 C-38.26671875 28.49441406 -37.6428125 27.75835937 -37 27 C-36.34 27 -35.68 27 -35 27 C-35 26.34 -35 25.68 -35 25 C-24.77411219 15.466387 -12.46583993 6.4440498 0 0 Z " fill="#96B3EC" transform="translate(388,362)"/>
<path d="M0 0 C0.66 0.33 1.32 0.66 2 1 C-5.66272365 15.9370143 -16.77389195 26.53742369 -29.9609375 36.6171875 C-32.88920075 38.77857292 -32.88920075 38.77857292 -34.6640625 40.8203125 C-36 42 -36 42 -40 42 C-40.33 42.66 -40.66 43.32 -41 44 C-42.485 44.495 -42.485 44.495 -44 45 C-44.66 44.34 -45.32 43.68 -46 43 C-45.21238281 42.53851563 -44.42476563 42.07703125 -43.61328125 41.6015625 C-24.20130082 30.42444444 -24.20130082 30.42444444 -10 14 C-9.34 14 -8.68 14 -8 14 C-7.73445313 13.27425781 -7.46890625 12.54851562 -7.1953125 11.80078125 C-5.99927052 8.99829072 -4.59670893 6.69520648 -2.875 4.1875 C-2.33617187 3.39730469 -1.79734375 2.60710937 -1.2421875 1.79296875 C-0.83226562 1.20128906 -0.42234375 0.60960937 0 0 Z " fill="#A8BFEF" transform="translate(442,314)"/>
<path d="M0 0 C0.66 0.33 1.32 0.66 2 1 C1.01 2.485 1.01 2.485 0 4 C-0.66 3.67 -1.32 3.34 -2 3 C-1.34 2.01 -0.68 1.02 0 0 Z M-6 1 C-5.34 1.99 -4.68 2.98 -4 4 C-3.34 4 -2.68 4 -2 4 C-1.00003538 7.15329752 -0.79644448 8.55204393 -2.1875 11.61328125 C-10.26027233 23.63544866 -10.26027233 23.63544866 -15 28 C-15.66 28 -16.32 28 -17 28 C-16.42415568 25.61435923 -15.77772405 23.33317216 -15 21 C-14.34 21 -13.68 21 -13 21 C-12.81824219 20.41992188 -12.63648438 19.83984375 -12.44921875 19.2421875 C-10.95292957 14.59218114 -9.18738998 10.37477996 -7 6 C-6.30092586 3.26427415 -6.30092586 3.26427415 -6 1 Z " fill="#85D3F9" transform="translate(376,276)"/>
<path d="M0 0 C2.67578125 0.34375 2.67578125 0.34375 4.6953125 2.3125 C5.28699219 3.1478125 5.87867187 3.983125 6.48828125 4.84375 C7.09285156 5.6790625 7.69742188 6.514375 8.3203125 7.375 C8.76761719 8.0246875 9.21492188 8.674375 9.67578125 9.34375 C9.34578125 10.00375 9.01578125 10.66375 8.67578125 11.34375 C6.67578125 10.34375 6.67578125 10.34375 5.23828125 7.90625 C3.7791408 5.1081528 3.7791408 5.1081528 0.67578125 3.34375 C-0.93010487 4.41713627 -0.93010487 4.41713627 -2.32421875 6.34375 C-2.87025151 9.63158525 -2.87025151 9.63158525 -2.94921875 13.28125 C-3.24948757 20.08019395 -3.24948757 20.08019395 -3.83129883 22.13208008 C-4.50241917 25.14331296 -4.43540023 27.99437221 -4.421875 31.078125 C-4.41865234 32.37363281 -4.41542969 33.66914063 -4.41210938 35.00390625 C-4.40375473 36.36718817 -4.39528979 37.73046942 -4.38671875 39.09375 C-4.38170043 40.47265465 -4.3771381 41.85156104 -4.37304688 43.23046875 C-4.36125968 46.60160659 -4.3448051 49.97265628 -4.32421875 53.34375 C-4.98421875 53.34375 -5.64421875 53.34375 -6.32421875 53.34375 C-6.96691846 15.0652147 -6.96691846 15.0652147 -3.32421875 1.34375 C-2.32421875 0.34375 -2.32421875 0.34375 0 0 Z " fill="#A8ECE4" transform="translate(108.32421875,260.65625)"/>
<path d="M0 0 C0.66 0 1.32 0 2 0 C2.58064516 24.83870968 2.58064516 24.83870968 -1 32 C-3.96632935 31.39720997 -6.04389672 30.49882697 -8.53125 28.78515625 C-9.17707031 28.34623047 -9.82289063 27.90730469 -10.48828125 27.45507812 C-11.15214844 26.99552734 -11.81601562 26.53597656 -12.5 26.0625 C-13.8214662 25.15543533 -15.14434257 24.250421 -16.46875 23.34765625 C-17.05076172 22.94554932 -17.63277344 22.54344238 -18.23242188 22.12915039 C-20.09724547 20.93787841 -22.00592558 19.95626923 -24 19 C-24 18.34 -24 17.68 -24 17 C-20.51329166 18.1094072 -17.22515763 19.26337666 -14 21 C-14 21.66 -14 22.32 -14 23 C-12.88625 23.2475 -11.7725 23.495 -10.625 23.75 C-7 25 -7 25 -5.5625 27.125 C-5.376875 27.74375 -5.19125 28.3625 -5 29 C-4.67 28.34 -4.34 27.68 -4 27 C-3.34 27 -2.68 27 -2 27 C-1.66027199 24.18814406 -1.32809788 21.37571764 -1 18.5625 C-0.90460938 17.77939453 -0.80921875 16.99628906 -0.7109375 16.18945312 C-0.08488869 10.75624381 0.08759571 5.46925737 0 0 Z " fill="#659DE6" transform="translate(293,456)"/>
<path d="M0 0 C1 3 1 3 0.07421875 4.8671875 C-0.38339844 5.52976563 -0.84101563 6.19234375 -1.3125 6.875 C-2.80994659 9.12732378 -4.01348141 11.03454612 -5 13.5625 C-5.93358669 15.83811756 -6.92046986 17.35549581 -8.375 19.3125 C-11.96191597 24.17287726 -14.53874569 29.14290629 -16 35 C-16.433125 35.70125 -16.86625 36.4025 -17.3125 37.125 C-19.71329768 41.2152479 -21.30859684 45.57831153 -23 50 C-23.66 50 -24.32 50 -25 50 C-21.94952024 36.78125438 -14.56535921 24.73806646 -8 13 C-7.34 13 -6.68 13 -6 13 C-5.88785156 12.43796875 -5.77570313 11.8759375 -5.66015625 11.296875 C-4.90942661 8.68486892 -3.78832624 6.60528678 -2.4375 4.25 C-1.98246094 3.45078125 -1.52742188 2.6515625 -1.05859375 1.828125 C-0.70925781 1.22484375 -0.35992187 0.6215625 0 0 Z " fill="#BEF0E8" transform="translate(249,181)"/>
<path d="M0 0 C2.47538532 2.18378681 3.50097045 3.84133026 4.3515625 7.01953125 C4.56296875 7.79490234 4.774375 8.57027344 4.9921875 9.36914062 C5.20101563 10.17544922 5.40984375 10.98175781 5.625 11.8125 C5.8415625 12.60720703 6.058125 13.40191406 6.28125 14.22070312 C7.94843196 20.44176172 9.13245712 26.36297493 9.09765625 32.8359375 C9.09443359 33.89941406 9.09121094 34.96289062 9.08789062 36.05859375 C9.07951172 37.15300781 9.07113281 38.24742187 9.0625 39.375 C9.05798828 40.49261719 9.05347656 41.61023438 9.04882812 42.76171875 C9.03709244 45.50786804 9.02067363 48.25390586 9 51 C8.67 51 8.34 51 8 51 C7.91959473 50.21463867 7.83918945 49.42927734 7.75634766 48.62011719 C7.38310755 44.99633378 7.00408486 41.37317646 6.625 37.75 C6.49867188 36.51507813 6.37234375 35.28015625 6.2421875 34.0078125 C5.11273424 23.27800651 4.02082501 13.05206253 0 3 C0 2.01 0 1.02 0 0 Z " fill="#81B5F0" transform="translate(287,415)"/>
<path d="M0 0 C0.99 0.495 0.99 0.495 2 1 C2.37890625 3.4934082 2.37890625 3.4934082 2.5625 6.80078125 C2.63726562 8.00669922 2.71203125 9.21261719 2.7890625 10.45507812 C2.85867187 11.72802734 2.92828125 13.00097656 3 14.3125 C3.46313877 22.49890664 4.07489605 30.45206287 5.6953125 38.50073242 C6.00124032 41.010174 5.79153013 42.62157738 5 45 C4.67 45 4.34 45 4 45 C0.84245589 29.84630761 -0.59370892 15.47525134 0 0 Z " fill="#C4F1E8" transform="translate(167,255)"/>
<path d="M0 0 C0.33 1.32 0.66 2.64 1 4 C1.66 4 2.32 4 3 4 C6.97034368 16.46996292 6.97034368 16.46996292 7.9375 21.625 C8.88719577 26.32120203 10.88870726 30.42448225 12.9765625 34.71484375 C14 37 14 37 14 39 C13.34 39 12.68 39 12 39 C11.71125 38.030625 11.4225 37.06125 11.125 36.0625 C10.35785318 32.89335797 10.35785318 32.89335797 8 32 C7.25390625 29.9609375 7.25390625 29.9609375 6.5625 27.375 C5.68091678 24.22904566 4.75731061 21.27266759 3.375 18.3125 C1.93112912 14.83408378 1.44665994 11.7221662 1 8 C0.67 7.67 0.34 7.34 0 7 C-0.04092937 4.66702567 -0.04241723 2.33294775 0 0 Z " fill="#CAF5F0" transform="translate(127,304)"/>
<path d="M0 0 C0.99 0.33 1.98 0.66 3 1 C2.25556641 1.67482422 2.25556641 1.67482422 1.49609375 2.36328125 C-4.10878203 7.67036477 -8.08792287 13.37422886 -12 20 C-12.515625 20.8353125 -13.03125 21.670625 -13.5625 22.53125 C-14.94842282 24.91142181 -16.09416941 27.28652933 -17.1875 29.8125 C-17.70376953 30.99779297 -17.70376953 30.99779297 -18.23046875 32.20703125 C-18.48441406 32.79871094 -18.73835938 33.39039063 -19 34 C-20.27615415 30.12419377 -19.44340937 28.11999021 -17.64941406 24.46582031 C-17.29073242 23.77584961 -16.93205078 23.08587891 -16.5625 22.375 C-16.19995117 21.6644043 -15.83740234 20.95380859 -15.46386719 20.22167969 C-11.39511805 12.48789682 -6.22003454 6.10994543 0 0 Z " fill="#88AAE9" transform="translate(351,390)"/>
<path d="M0 0 C0.66 0.33 1.32 0.66 2 1 C0.375 3.4375 0.375 3.4375 -2 6 C-3.98985949 6.38932033 -5.99199544 6.71887936 -8 7 C-10.04563599 8.26220093 -12.04402816 9.60287726 -14 11 C-16.3106453 12.37705124 -18.65274871 13.68553928 -21 15 C-21 15.66 -21 16.32 -21 17 C-21.99 17.33 -22.98 17.66 -24 18 C-24.33 18.66 -24.66 19.32 -25 20 C-26.9375 20.6875 -26.9375 20.6875 -29 21 C-29.66 20.67 -30.32 20.34 -31 20 C-31 19.34 -31 18.68 -31 18 C-30.26394531 17.73316406 -29.52789062 17.46632813 -28.76953125 17.19140625 C-26.04920228 16.021166 -24.04707921 14.71032772 -21.6875 12.9375 C-17.11113156 9.66273105 -12.38379336 6.78410634 -7.5 4 C-6.79319092 3.58999756 -6.08638184 3.17999512 -5.3581543 2.75756836 C-3.60721931 1.77313164 -1.80665538 0.87800075 0 0 Z " fill="#BFE6FD" transform="translate(361,470)"/>
<path d="M0 0 C0.66 0.33 1.32 0.66 2 1 C-0.91100579 3.96056456 -3.82861694 6.91441186 -6.75244141 9.86230469 C-7.74548045 10.86538097 -8.73671447 11.87024767 -9.72607422 12.87695312 C-11.15117426 14.32640161 -12.58271168 15.76921773 -14.015625 17.2109375 C-14.87446289 18.08024902 -15.73330078 18.94956055 -16.61816406 19.84521484 C-18.74281869 21.76733475 -20.43347483 22.8254535 -23 24 C-23.70125 24.70125 -24.4025 25.4025 -25.125 26.125 C-25.74375 26.74375 -26.3625 27.3625 -27 28 C-27.66 28 -28.32 28 -29 28 C-29.33 28.66 -29.66 29.32 -30 30 C-29.67965698 26.98059663 -29.01949327 26.01853402 -26.77734375 23.88671875 C-25.37162109 22.79810547 -25.37162109 22.79810547 -23.9375 21.6875 C-22.9371875 20.89601563 -21.936875 20.10453125 -20.90625 19.2890625 C-19.9471875 18.53367187 -18.988125 17.77828125 -18 17 C-11.62357301 11.70941384 -5.80196331 5.90896673 0 0 Z " fill="#A9D9DF" transform="translate(468,361)"/>
<path d="M0 0 C2 1 2 1 2.9375 2.9375 C3.95345922 5.31971493 3.95345922 5.31971493 7 7 C7 7.99 7 8.98 7 10 C7.66 10 8.32 10 9 10 C9.66 11.98 10.32 13.96 11 16 C11.66 16 12.32 16 13 16 C13.87144869 17.5529276 14.72153657 19.11785436 15.5625 20.6875 C16.03816406 21.55761719 16.51382812 22.42773438 17.00390625 23.32421875 C18.14268368 26.38328753 17.92718689 27.91863039 17 31 C15 29 15 29 14.6171875 26.7890625 C13.82199227 23.19558533 12.07606695 20.43796532 10.125 17.375 C9.59712891 16.51648438 9.59712891 16.51648438 9.05859375 15.640625 C7.26100921 12.76716272 5.40202697 10.37181279 3 8 C3 7.34 3 6.68 3 6 C2.34 6 1.68 6 1 6 C0.34 4.35 -0.32 2.7 -1 1 C-0.67 0.67 -0.34 0.34 0 0 Z " fill="#71B1EC" transform="translate(248,410)"/>
<path d="M0 0 C0.33 0.99 0.66 1.98 1 3 C-0.19918809 4.42441631 -1.40986202 5.83916564 -2.625 7.25 C-3.63433594 8.43335938 -3.63433594 8.43335938 -4.6640625 9.640625 C-7.2333727 12.23571423 -9.9568969 13.98910524 -13 16 C-15.65736305 18.26352346 -18.15481325 20.69635777 -20.67578125 23.109375 C-23.2940472 25.57283345 -25.64830794 27.63687165 -29 29 C-29 28.01 -29 27.02 -29 26 C-26.68359375 24.01171875 -26.68359375 24.01171875 -23.4375 21.6875 C-17.89306383 17.60639561 -12.77166527 13.20845612 -7.75 8.5 C-7.09443115 7.88858154 -6.4388623 7.27716309 -5.76342773 6.6472168 C-2.45202076 3.65389382 -2.45202076 3.65389382 0 0 Z " fill="#D3F4F7" transform="translate(485,394)"/>
<path d="M0 0 C-6.93178028 3.98656256 -13.99744344 3.40822583 -21.8125 3.3125 C-23.16080957 3.31460699 -24.50911788 3.31785246 -25.85742188 3.32226562 C-35.73284837 3.26715163 -35.73284837 3.26715163 -38 1 C-37.18321777 0.97494385 -36.36643555 0.9498877 -35.52490234 0.92407227 C-31.80812451 0.80770857 -28.09157498 0.68516528 -24.375 0.5625 C-23.08980469 0.52318359 -21.80460937 0.48386719 -20.48046875 0.44335938 C-19.23652344 0.40146484 -17.99257813 0.35957031 -16.7109375 0.31640625 C-15.56931152 0.27974854 -14.42768555 0.24309082 -13.25146484 0.20532227 C-9.98390955 0.05474336 -9.98390955 0.05474336 -6.72900391 -0.54711914 C-4.050641 -0.99159608 -2.5333346 -0.87692352 0 0 Z " fill="#C5EDFD" transform="translate(334,348)"/>
<path d="M0 0 C6.45353615 2.05764921 12.7361263 4.42383482 19 7 C19 7.66 19 8.32 19 9 C19.67546875 9.19335938 20.3509375 9.38671875 21.046875 9.5859375 C21.93890625 9.84632813 22.8309375 10.10671875 23.75 10.375 C24.63171875 10.63023437 25.5134375 10.88546875 26.421875 11.1484375 C28.79901593 11.93361435 30.87825969 12.67152296 33 14 C33.495 15.485 33.495 15.485 34 17 C30.03626627 15.74230129 26.30798422 14.299923 22.55859375 12.50390625 C21.56279297 12.02759766 20.56699219 11.55128906 19.54101562 11.06054688 C18.51685547 10.56619141 17.49269531 10.07183594 16.4375 9.5625 C15.40947266 9.07201172 14.38144531 8.58152344 13.32226562 8.07617188 C4.12069824 3.6572727 4.12069824 3.6572727 0 1 C0 0.67 0 0.34 0 0 Z " fill="#75B2EA" transform="translate(230,454)"/>
<path d="M0 0 C0.99 0.495 0.99 0.495 2 1 C1.97292969 2.01191406 1.94585937 3.02382813 1.91796875 4.06640625 C2.10476736 13.02384437 4.61299722 21.75338454 8 30 C9.44095589 33.86782896 10.2432596 36.86458672 10 41 C1.81700645 31.46867228 -0.63395133 12.25639235 0 0 Z " fill="#9CE9E7" transform="translate(103,315)"/>
<path d="M0 0 C0.99 0.495 0.99 0.495 2 1 C2.82804069 3.48412207 3 5.35220307 3 8 C3.66 8.33 4.32 8.66 5 9 C6.2890625 10.99609375 6.2890625 10.99609375 7.625 13.4375 C8.07101563 14.24058594 8.51703125 15.04367187 8.9765625 15.87109375 C10 18 10 18 10 20 C10.99 20.33 11.98 20.66 13 21 C15.11485214 24.35888281 16.7483016 27.24490479 18 31 C17.34 31 16.68 31 16 31 C9.514015 23.04773326 0 10.50289091 0 0 Z " fill="#83CCED" transform="translate(223,288)"/>
<path d="M0 0 C0.66 0 1.32 0 2 0 C1.36658758 4.78785268 -0.58936585 8.62522327 -2.75 12.875 C-3.08515625 13.55691406 -3.4203125 14.23882812 -3.765625 14.94140625 C-6.12625741 19.6358457 -8.85603829 23.7897296 -12 28 C-12.96862277 24.62065154 -12.92663319 23.02391967 -11.5625 19.75 C-11.27503906 19.04359375 -10.98757813 18.3371875 -10.69140625 17.609375 C-10.46324219 17.07828125 -10.23507812 16.5471875 -10 16 C-9.34 16.66 -8.68 17.32 -8 18 C-7.03654556 16.12762629 -6.07946898 14.2519701 -5.125 12.375 C-4.59132813 11.33085937 -4.05765625 10.28671875 -3.5078125 9.2109375 C-2.08545709 6.18198375 -0.9877999 3.19356666 0 0 Z " fill="#84CDEC" transform="translate(397,288)"/>
<path d="M0 0 C1.41375275 2.8275055 0.38573059 4.68829387 -0.39038086 7.62158203 C-2.63038433 16.36091477 -3.26834913 24.68407206 -3.125 33.6875 C-3.11597656 34.78255859 -3.10695312 35.87761719 -3.09765625 37.00585938 C-3.07438154 39.67081354 -3.04169135 42.33528134 -3 45 C-3.99 45.495 -3.99 45.495 -5 46 C-5.0247345 41.92489562 -5.04287637 37.84982036 -5.05493164 33.7746582 C-5.05995777 32.38858275 -5.06677966 31.00251259 -5.07543945 29.61645508 C-5.08758018 27.62323285 -5.09271021 25.62997181 -5.09765625 23.63671875 C-5.10289307 22.43748779 -5.10812988 21.23825684 -5.11352539 20.00268555 C-5 17 -5 17 -4 14 C-3.93259135 12.43881572 -3.91485544 10.8749748 -3.9375 9.3125 C-3.94652344 8.50425781 -3.95554688 7.69601562 -3.96484375 6.86328125 C-3.97644531 6.24839844 -3.98804688 5.63351562 -4 5 C-3.34 4.67 -2.68 4.34 -2 4 C-0.86649466 1.98330173 -0.86649466 1.98330173 0 0 Z " fill="#C5F3E6" transform="translate(153,260)"/>
<path d="M0 0 C0 3.58631804 -0.91855493 4.81260161 -2.8125 7.8125 C-4.50327125 10.53980468 -6.08739709 13.17843572 -7.5 16.0625 C-10.67707439 22.28427069 -14.12168184 28.02349066 -20 32 C-18.62420377 28.07617299 -16.79714015 25.21027891 -14.25 21.9375 C-10.61368391 17.07590349 -7.92191136 12.15104539 -5.421875 6.62890625 C-3.93796522 3.88530383 -2.30322425 2.08176038 0 0 Z " fill="#C9F4E5" transform="translate(271,148)"/>
<path d="M0 0 C0.99 0.33 1.98 0.66 3 1 C3 1.66 3 2.32 3 3 C3.8971875 3.1546875 3.8971875 3.1546875 4.8125 3.3125 C7.31258286 4.09824033 8.37535082 4.96918853 10 7 C10 7.66 10 8.32 10 9 C10.680625 9.2475 11.36125 9.495 12.0625 9.75 C21.1038961 13.5974026 21.1038961 13.5974026 23.4375 17.25 C23.623125 17.8275 23.80875 18.405 24 19 C14.96420557 15.88877408 6.93095358 8.45838856 0 2 C0 1.34 0 0.68 0 0 Z " fill="#81C4ED" transform="translate(242,320)"/>
<path d="M0 0 C4.90084937 1.67228193 9.00362052 4.3801069 13.3125 7.1875 C14.06781006 7.67710205 14.82312012 8.1667041 15.60131836 8.67114258 C20.76523827 12.06741513 25.60277608 15.63258777 30 20 C26.29890901 20 25.02731606 19.09028966 22 17 C20.33333333 15.33333333 18.66666667 13.66666667 17 12 C16.01 11.67 15.02 11.34 14 11 C14 10.34 14 9.68 14 9 C11.34771188 7.92474806 8.71631546 6.90543849 6 6 C6 5.34 6 4.68 6 4 C5.01 4 4.02 4 3 4 C3 3.34 3 2.68 3 2 C2.01 1.67 1.02 1.34 0 1 C0 0.67 0 0.34 0 0 Z " fill="#88C3EB" transform="translate(234,363)"/>
<path d="M0 0 C0.66 0.33 1.32 0.66 2 1 C1.65066406 1.64324219 1.30132812 2.28648437 0.94140625 2.94921875 C-2.77898433 10.33730316 -3.85599092 16.76529906 -4 25 C-5.65 25.33 -7.3 25.66 -9 26 C-9 23.36 -9 20.72 -9 18 C-8.01 18.99 -7.02 19.98 -6 21 C-5.95101562 20.27554687 -5.90203125 19.55109375 -5.8515625 18.8046875 C-5.44793848 13.58541133 -4.98724193 8.90186342 -3 4 C-2.34 4 -1.68 4 -1 4 C-0.67 2.68 -0.34 1.36 0 0 Z " fill="#C9F8FE" transform="translate(252,248)"/>
<path d="M0 0 C0.66 0 1.32 0 2 0 C2.33773437 0.63808594 2.67546875 1.27617187 3.0234375 1.93359375 C3.46945313 2.75988281 3.91546875 3.58617187 4.375 4.4375 C4.81585938 5.26121094 5.25671875 6.08492188 5.7109375 6.93359375 C6.83418559 9.13466578 6.83418559 9.13466578 9 10 C9.33 10.99 9.66 11.98 10 13 C10.7425 13.7425 11.485 14.485 12.25 15.25 C15.30495479 18.30495479 17.55938043 21.44366862 20 25 C19.67 25.66 19.34 26.32 19 27 C0 5.34558824 0 5.34558824 0 0 Z " fill="#94E4EE" transform="translate(120,370)"/>
<path d="M0 0 C0 3 0 3 -1.28515625 4.5 C-5.36836824 7.94605144 -9.0032901 10.1144491 -14 12 C-14.70125 12.391875 -15.4025 12.78375 -16.125 13.1875 C-18.49932558 14.21637442 -20.44093582 14.14217023 -23 14 C-20.45398113 11.45398113 -17.51889531 10.21769305 -14.3125 8.6875 C-9.17358419 6.18633333 -4.49933637 3.53519286 0 0 Z " fill="#D1F3FE" transform="translate(371,329)"/>
<path d="M0 0 C0.66 0.33 1.32 0.66 2 1 C-1.98633109 8.77059009 -6.68275765 15.91247555 -13 22 C-13.99 21.67 -14.98 21.34 -16 21 C-15.04882866 19.8274869 -14.08882991 18.66212985 -13.125 17.5 C-12.59132813 16.8503125 -12.05765625 16.200625 -11.5078125 15.53125 C-10.76144531 14.77328125 -10.76144531 14.77328125 -10 14 C-9.34 14 -8.68 14 -8 14 C-7.73445313 13.27425781 -7.46890625 12.54851562 -7.1953125 11.80078125 C-5.99927052 8.99829072 -4.59670893 6.69520648 -2.875 4.1875 C-2.33617187 3.39730469 -1.79734375 2.60710937 -1.2421875 1.79296875 C-0.83226562 1.20128906 -0.42234375 0.60960937 0 0 Z " fill="#C2D0EF" transform="translate(442,314)"/>
<path d="M0 0 C0.66 0.33 1.32 0.66 2 1 C1.49210937 1.54527344 0.98421875 2.09054687 0.4609375 2.65234375 C-6.39161795 10.15935675 -11.65890116 17.81690631 -16 27 C-16.6875 25.3125 -16.6875 25.3125 -17 23 C-15.78515625 20.61328125 -15.78515625 20.61328125 -14 18 C-13.42121094 17.04480469 -12.84242188 16.08960938 -12.24609375 15.10546875 C-11.64925781 14.14253906 -11.05242187 13.17960937 -10.4375 12.1875 C-9.83808594 11.21167969 -9.23867188 10.23585938 -8.62109375 9.23046875 C-8.08613281 8.49441406 -7.55117188 7.75835937 -7 7 C-6.34 7 -5.68 7 -5 7 C-4.731875 6.401875 -4.46375 5.80375 -4.1875 5.1875 C-3.01506533 3.02775192 -1.80630718 1.64209744 0 0 Z " fill="#89B1E9" transform="translate(374,411)"/>
<path d="M0 0 C-0.33 0.66 -0.66 1.32 -1 2 C-11.23 2 -21.46 2 -32 2 C-32 1.67 -32 1.34 -32 1 C-27.92543173 0.68914723 -23.85035972 0.38621042 -19.7746582 0.09057617 C-18.38842945 -0.01109249 -17.00235708 -0.11491751 -15.61645508 -0.22094727 C-13.62363516 -0.37303277 -11.63017889 -0.51670626 -9.63671875 -0.66015625 C-7.83787231 -0.79369507 -7.83787231 -0.79369507 -6.00268555 -0.92993164 C-3 -1 -3 -1 0 0 Z " fill="#D0D2DD" transform="translate(496,636)"/>
<path d="M0 0 C0.66 0.33 1.32 0.66 2 1 C-3.31268965 6.28757055 -8.31852846 10.95719985 -16 12 C-17.34031418 11.69594938 -18.67527015 11.36603241 -20 11 C-19.25109497 10.60675537 -19.25109497 10.60675537 -18.48706055 10.20556641 C-16.21964306 9.01374241 -13.95356175 7.81939956 -11.6875 6.625 C-10.50897461 6.00625 -10.50897461 6.00625 -9.30664062 5.375 C-8.54931641 4.97539062 -7.79199219 4.57578125 -7.01171875 4.1640625 C-6.31522217 3.79748535 -5.61872559 3.4309082 -4.90112305 3.05322266 C-3.21744775 2.12046611 -1.60151793 1.06767862 0 0 Z " fill="#CDF2FC" transform="translate(444,428)"/>
<path d="M0 0 C4.40477815 3.12395614 6.95126692 6.49564171 9.75 11 C10.14832031 11.61617188 10.54664063 12.23234375 10.95703125 12.8671875 C12.83516468 15.83400166 14.47369843 18.49132289 15 22 C14.01 22 13.02 22 12 22 C11.87625 21.360625 11.7525 20.72125 11.625 20.0625 C11.41875 19.381875 11.2125 18.70125 11 18 C10.34 17.67 9.68 17.34 9 17 C7.6250851 14.09740189 7 12.23861295 7 9 C6.01 8.67 5.02 8.34 4 8 C0 2.62857143 0 2.62857143 0 0 Z " fill="#7BB2E8" transform="translate(272,392)"/>
<path d="M0 0 C0.33 0 0.66 0 1 0 C1.1733695 10.40216976 0.91810018 20.24171276 -3 30 C-4.15215751 26.55164127 -3.82589494 24.10057928 -3.125 20.5625 C-2.08283427 14.88304651 -1.58095894 9.28057933 -1.24609375 3.51953125 C-1 1 -1 1 0 0 Z " fill="#CEEAFD" transform="translate(297,452)"/>
<path d="M0 0 C0.33 0.99 0.66 1.98 1 3 C-0.07421875 4.97265625 -0.07421875 4.97265625 -1.6875 7.0625 C-2.20699219 7.75472656 -2.72648437 8.44695312 -3.26171875 9.16015625 C-5.0816024 11.08637019 -6.61529908 11.90640988 -9 13 C-10.37086915 14.29470975 -11.71340837 15.62150897 -13 17 C-13.66 16.67 -14.32 16.34 -15 16 C-14.08476562 15.09636719 -13.16953125 14.19273437 -12.2265625 13.26171875 C-11.02590942 12.07044577 -9.82539585 10.87903217 -8.625 9.6875 C-8.02171875 9.09259766 -7.4184375 8.49769531 -6.796875 7.88476562 C-6.21679688 7.30791016 -5.63671875 6.73105469 -5.0390625 6.13671875 C-4.50490723 5.60780029 -3.97075195 5.07888184 -3.42041016 4.53393555 C-1.78498535 2.8489902 -1.78498535 2.8489902 0 0 Z " fill="#DAF7FD" transform="translate(387,312)"/>
<path d="M0 0 C1.32 0.33 2.64 0.66 4 1 C-3.74296034 5.55344822 -11.84073527 9.26974326 -20 13 C-19 10 -19 10 -17.46533203 8.92504883 C-16.81935059 8.60560303 -16.17336914 8.28615723 -15.5078125 7.95703125 C-14.45013672 7.43012695 -14.45013672 7.43012695 -13.37109375 6.89257812 C-12.25927734 6.35793945 -12.25927734 6.35793945 -11.125 5.8125 C-10.02478516 5.26045898 -10.02478516 5.26045898 -8.90234375 4.69726562 C-3.40772843 2 -3.40772843 2 0 2 C0 1.34 0 0.68 0 0 Z " fill="#7DAEEA" transform="translate(378,459)"/>
<path d="M0 0 C0.66 0.33 1.32 0.66 2 1 C-7.06756223 8.71750296 -7.06756223 8.71750296 -13 9 C-13.99 9.33 -14.98 9.66 -16 10 C-16.33 9.34 -16.66 8.68 -17 8 C-14.21443118 6.63301613 -11.42068672 5.28365462 -8.625 3.9375 C-7.8309375 3.54755859 -7.036875 3.15761719 -6.21875 2.75585938 C-5.45820313 2.39169922 -4.69765625 2.02753906 -3.9140625 1.65234375 C-2.8614624 1.14175415 -2.8614624 1.14175415 -1.78759766 0.62084961 C-1.19769043 0.41596924 -0.6077832 0.21108887 0 0 Z " fill="#C0EAFC" transform="translate(411,446)"/>
<path d="M0 0 C4 0 4 0 6 1.9375 C6.99 2.9584375 6.99 2.9584375 8 4 C10.11280345 4.63292383 10.11280345 4.63292383 12 5 C12.33 5.66 12.66 6.32 13 7 C14.82209972 7.75707473 14.82209972 7.75707473 16.9375 8.375 C20.81266376 9.72680131 20.81266376 9.72680131 22.5 12.1875 C22.7475 13.0846875 22.7475 13.0846875 23 14 C18.74930021 12.43522626 14.86181423 10.36389826 10.9375 8.125 C10.32583984 7.78597656 9.71417969 7.44695312 9.08398438 7.09765625 C5.55827381 5.0927657 2.71360873 3.01812841 0 0 Z " fill="#D2F3FD" transform="translate(192,392)"/>
<path d="M0 0 C-3.05688229 1.65642764 -6.12139395 3.29821792 -9.1875 4.9375 C-10.05181641 5.40607422 -10.91613281 5.87464844 -11.80664062 6.35742188 C-12.64775391 6.80537109 -13.48886719 7.25332031 -14.35546875 7.71484375 C-15.12528076 8.12855225 -15.89509277 8.54226074 -16.68823242 8.96850586 C-19.12180458 10.05434833 -21.37634398 10.5759133 -24 11 C-19.11633211 6.95353232 -14.113235 3.93732769 -8.375 1.25 C-7.43398438 0.80140625 -6.49296875 0.3528125 -5.5234375 -0.109375 C-3 -1 -3 -1 0 0 Z " fill="#8BC3EB" transform="translate(424,440)"/>
<path d="M0 0 C0.66 0.33 1.32 0.66 2 1 C-2.10904189 4.75649096 -5.89241345 7.66827571 -11 10 C-12.67623498 10.98387706 -14.34634594 11.97862543 -16 13 C-16.66 12.34 -17.32 11.68 -18 11 C-15.04968544 9.13283045 -12.08856877 7.28354701 -9.125 5.4375 C-8.28324219 4.90447266 -7.44148438 4.37144531 -6.57421875 3.82226562 C-5.76855469 3.32275391 -4.96289062 2.82324219 -4.1328125 2.30859375 C-3.01737061 1.60947876 -3.01737061 1.60947876 -1.87939453 0.89624023 C-1.25919434 0.60048096 -0.63899414 0.30472168 0 0 Z " fill="#A0BBEC" transform="translate(388,362)"/>
<path d="M0 0 C-1.66215268 1.33895632 -3.32963607 2.67130142 -5 4 C-5.928125 4.8353125 -5.928125 4.8353125 -6.875 5.6875 C-9.81283849 7.5020473 -12.60291738 7.67335744 -16 8 C-11.98438075 3.48242834 -6.3163402 -2.29813271 0 0 Z " fill="#8CBEEE" transform="translate(396,415)"/>
<path d="M0 0 C0.66 0.66 1.32 1.32 2 2 C0.54436798 6.12429072 -1.52807933 9.40447903 -4 13 C-4.53625 13.928125 -5.0725 14.85625 -5.625 15.8125 C-7 18 -7 18 -9 19 C-8.67 17.68 -8.34 16.36 -8 15 C-7.34 15 -6.68 15 -6 15 C-5.896875 13.906875 -5.79375 12.81375 -5.6875 11.6875 C-4.97709268 7.87713346 -4.70753305 7.38262908 -2 5 C-0.80972016 2.40084462 -0.80972016 2.40084462 0 0 Z " fill="#EAF9E2" transform="translate(301,96)"/>
<path d="M0 0 C0.99 0.33 1.98 0.66 3 1 C-7.37357631 10.59453303 -7.37357631 10.59453303 -13 14 C-13.66 13.34 -14.32 12.68 -15 12 C-14.25234375 11.46890625 -13.5046875 10.9378125 -12.734375 10.390625 C-11.74953125 9.68421875 -10.7646875 8.9778125 -9.75 8.25 C-8.77546875 7.55390625 -7.8009375 6.8578125 -6.796875 6.140625 C-4.30766704 4.23547701 -2.15028061 2.27315379 0 0 Z " fill="#B4C7EE" transform="translate(425,336)"/>
<path d="M0 0 C2.55084822 3.82627233 4.26791748 7.86601847 6.125 12.0625 C6.49753906 12.89072266 6.87007812 13.71894531 7.25390625 14.57226562 C7.60582031 15.36439453 7.95773438 16.15652344 8.3203125 16.97265625 C8.64273926 17.69718994 8.96516602 18.42172363 9.29736328 19.16821289 C10 21 10 21 10 23 C9.34 23 8.68 23 8 23 C7.71125 22.030625 7.4225 21.06125 7.125 20.0625 C6.35785318 16.89335797 6.35785318 16.89335797 4 16 C3.18359375 13.75 3.18359375 13.75 2.4375 11 C1.73509107 7.71746634 1.73509107 7.71746634 0 5 C-0.04063832 3.33382885 -0.042721 1.66611905 0 0 Z " fill="#ADECE7" transform="translate(131,320)"/>
<path d="M0 0 C5.95788419 1.9859614 8.64677265 8.48701844 11.828125 13.59765625 C13 16 13 16 13 20 C10.65152617 16.95700799 8.55427554 13.81059794 6.5 10.5625 C5.9121875 9.63566406 5.324375 8.70882812 4.71875 7.75390625 C3.1161307 5.18607305 1.54826189 2.60089115 0 0 Z " fill="#A9E9EA" transform="translate(359,203)"/>
<path d="M0 0 C4.91935902 4.11619836 9.52647956 8.40410362 14 13 C13.01 13.495 13.01 13.495 12 14 C11.01 13.67 10.02 13.34 9 13 C9 12.34 9 11.68 9 11 C8.01 11 7.02 11 6 11 C5.62875 9.88625 5.62875 9.88625 5.25 8.75 C3.90634806 5.79396573 2.31013315 4.23312872 0 2 C0 1.34 0 0.68 0 0 Z " fill="#90E2EE" transform="translate(154,362)"/>
<path d="M0 0 C1.65 0.33 3.3 0.66 5 1 C4.06725891 2.12894876 3.12859878 3.25300876 2.1875 4.375 C1.66542969 5.00148438 1.14335937 5.62796875 0.60546875 6.2734375 C-1 8 -1 8 -4 10 C-3.43454163 6.04179141 -2.19097652 3.3340947 0 0 Z " fill="#C6E6FE" transform="translate(362,429)"/>
<path d="M0 0 C0 0.66 0 1.32 0 2 C-1.69810754 3.37898043 -3.46035459 4.67959478 -5.25 5.9375 C-6.22453125 6.62714844 -7.1990625 7.31679688 -8.203125 8.02734375 C-9.12609375 8.67832031 -10.0490625 9.32929688 -11 10 C-12.33757317 10.99432178 -13.6727586 11.99192855 -15 13 C-15 12.01 -15 11.02 -15 10 C-13.03453364 8.21736772 -11.09924304 6.6053035 -9 5 C-8.0925 4.2575 -7.185 3.515 -6.25 2.75 C-2.71428571 0 -2.71428571 0 0 0 Z " fill="#98BAEC" transform="translate(391,399)"/>
<path d="M0 0 C0.66 0.33 1.32 0.66 2 1 C-0.24447661 3.5811481 -1.7493136 4.1873284 -5 5 C-5.495 5.495 -5.99 5.99 -6.5 6.5 C-8.30270087 8.30270087 -9.47598128 8.75574012 -12 9 C-12.66 8.34 -13.32 7.68 -14 7 C-11.71296692 5.80274117 -9.42115138 4.61702982 -7.125 3.4375 C-6.14853516 2.92413086 -6.14853516 2.92413086 -5.15234375 2.40039062 C-3.46470143 1.53917109 -1.73420407 0.76313297 0 0 Z " fill="#BCE5FC" transform="translate(379,461)"/>
<path d="M0 0 C4.88634007 -0.57486354 7.07565516 1.25295861 11 4 C13.30142646 5.10895348 15.62574181 6.05029672 18 7 C18 7.66 18 8.32 18 9 C13.64029169 7.65150163 9.68658562 5.95092154 5.625 3.875 C4.56539062 3.33617187 3.50578125 2.79734375 2.4140625 2.2421875 C1.61742187 1.83226562 0.82078125 1.42234375 0 1 C0 0.67 0 0.34 0 0 Z " fill="#7ABFEB" transform="translate(208,444)"/>
<path d="M0 0 C0.66 0.33 1.32 0.66 2 1 C1.360625 1.598125 0.72125 2.19625 0.0625 2.8125 C-2.20310389 4.90810337 -2.20310389 4.90810337 -3 8 C-4.28659163 9.37849103 -5.62913085 10.70529025 -7 12 C-7.9075 12.9075 -8.815 13.815 -9.75 14.75 C-10.86375 15.86375 -10.86375 15.86375 -12 17 C-10.55540661 12.67411378 -8.36311665 9.72505028 -5.4375 6.25 C-4.63183594 5.28578125 -3.82617188 4.3215625 -2.99609375 3.328125 C-1 1 -1 1 0 0 Z " fill="#CDE8FD" transform="translate(375,412)"/>
<path d="M0 0 C0.721875 0.103125 1.44375 0.20625 2.1875 0.3125 C2.8475 1.6325 3.5075 2.9525 4.1875 4.3125 C3.5275 4.3125 2.8675 4.3125 2.1875 4.3125 C2.1875 3.6525 2.1875 2.9925 2.1875 2.3125 C-2.40556496 3.7984916 -5.24819245 6.16264682 -8.8125 9.3125 C-8.26122218 4.35099964 -4.99006199 0.55445133 0 0 Z " fill="#BEEFDE" transform="translate(162.8125,250.6875)"/>
<path d="M0 0 C0 3.6136481 -0.97096143 4.90834772 -2.875 7.9375 C-4.7297854 10.90784474 -6.489209 13.8390732 -8 17 C-7.82815168 10.11044452 -6.49585858 6.26344419 -2 1 C-1.34 0.67 -0.68 0.34 0 0 Z " fill="#ABEBEE" transform="translate(254,217)"/>
<path d="M0 0 C3.59391114 1.33488128 6.75490696 2.96022723 10 5 C10.33 4.34 10.66 3.68 11 3 C11.66 3 12.32 3 13 3 C13 3.66 13 4.32 13 5 C10 7 10 7 6.8125 6.625 C5.884375 6.41875 4.95625 6.2125 4 6 C4 5.01 4 4.02 4 3 C2.35 2.67 0.7 2.34 -1 2 C-0.67 1.34 -0.34 0.68 0 0 Z " fill="#D0E9FE" transform="translate(282,483)"/>
<path d="M0 0 C0.66 0.33 1.32 0.66 2 1 C-3.86516854 5.88764045 -3.86516854 5.88764045 -7 7 C-9.25 6.625 -9.25 6.625 -11 6 C-7.57874946 3.12614955 -4.16111563 1.54115394 0 0 Z " fill="#BFE8FD" transform="translate(392,455)"/>
<path d="M0 0 C0.66 0 1.32 0 2 0 C0.33333333 5 -1.33333333 10 -3 15 C-4.11709828 11.64870516 -4.34479387 9.51689744 -4 6 C-2.125 2.625 -2.125 2.625 0 0 Z " fill="#D6E8FC" transform="translate(333,411)"/>
<path d="M0 0 C5.38360553 4.26975611 6.44653196 10.61190711 8 17 C3.98991145 12.70347656 0 6.07663952 0 0 Z " fill="#AAEAE5" transform="translate(153,322)"/>
<path d="M0 0 C0.66 0 1.32 0 2 0 C3.4807848 2.9615696 3.35314037 5.83506295 3.5625 9.125 C3.64628906 10.40632813 3.73007813 11.68765625 3.81640625 13.0078125 C3.90728516 14.48894531 3.90728516 14.48894531 4 16 C3.34 16 2.68 16 2 16 C1.90912109 15.14728516 1.90912109 15.14728516 1.81640625 14.27734375 C1.29823427 9.50218963 0.70756141 4.7507695 0 0 Z " fill="#C0F2EA" transform="translate(123,288)"/>
<path d="M0 0 C2.91227269 3.28804981 4.49701212 5.59885603 5 10 C1.63279613 8.60667426 0.0140476 7.0210714 -2 4 C-1.34 4 -0.68 4 0 4 C0 2.68 0 1.36 0 0 Z " fill="#BEE6FE" transform="translate(258,427)"/>
<path d="M0 0 C0.66 0.33 1.32 0.66 2 1 C0.61019248 2.13243576 -0.78714677 3.25563119 -2.1875 4.375 C-2.96480469 5.00148438 -3.74210937 5.62796875 -4.54296875 6.2734375 C-6.96879382 7.97807134 -9.21309045 9.01987906 -12 10 C-10.5910935 6.47773376 -9.41496939 5.51776417 -6 4 C-3.98817543 2.68457624 -1.98600337 1.3540932 0 0 Z " fill="#DCF6FC" transform="translate(444,381)"/>
<path d="M0 0 C2.9375 0.8125 2.9375 0.8125 6 2 C6.33 2.99 6.66 3.98 7 5 C8.88316159 6.10836423 8.88316159 6.10836423 11 7 C11.99 7.66 12.98 8.32 14 9 C13.67 9.99 13.34 10.98 13 12 C11.39490066 10.56354149 9.79095576 9.12579294 8.1875 7.6875 C7.29417969 6.88699219 6.40085938 6.08648437 5.48046875 5.26171875 C3.60073214 3.54775419 1.77407253 1.82122396 0 0 Z " fill="#87C2EB" transform="translate(233,401)"/>
<path d="M0 0 C0.66 0.66 1.32 1.32 2 2 C1.35474023 3.4585872 0.7087728 4.91686137 0.0625 6.375 C-0.29714844 7.18710938 -0.65679687 7.99921875 -1.02734375 8.8359375 C-1.6569903 10.23683785 -2.31312642 11.62625284 -3 13 C-3.66 13 -4.32 13 -5 13 C-4.54803755 11.39402675 -4.08817673 9.79027492 -3.625 8.1875 C-3.36976563 7.29417969 -3.11453125 6.40085938 -2.8515625 5.48046875 C-2 3 -2 3 0 0 Z " fill="#A6E8ED" transform="translate(229,218)"/>
<path d="M0 0 C0.66 0 1.32 0 2 0 C2.33 1.32 2.66 2.64 3 4 C2.1028125 4.0309375 2.1028125 4.0309375 1.1875 4.0625 C-1.43314602 4.90456616 -1.43314602 4.90456616 -2.75 8.5625 C-3.1625 9.696875 -3.575 10.83125 -4 12 C-4.33 12 -4.66 12 -5 12 C-4.58894145 6.75900345 -3.75960806 3.75960806 0 0 Z " fill="#D5FAFE" transform="translate(373,236)"/>
<path d="M0 0 C0 3.60194862 -0.96327513 5.00745453 -2.8125 8.0625 C-3.33457031 8.94035156 -3.85664063 9.81820312 -4.39453125 10.72265625 C-6 13 -6 13 -9 15 C-8.70996094 14.42378906 -8.41992188 13.84757813 -8.12109375 13.25390625 C-7.41307522 11.8304683 -6.71620222 10.40138202 -6.03515625 8.96484375 C-5.71417969 8.29582031 -5.39320313 7.62679687 -5.0625 6.9375 C-4.74410156 6.26589844 -4.42570312 5.59429687 -4.09765625 4.90234375 C-2.95225487 2.9172531 -1.68474685 1.54075139 0 0 Z " fill="#DAF8EA" transform="translate(271,148)"/>
<path d="M0 0 C0.99 0.33 1.98 0.66 3 1 C5.00875442 0.72428861 7.01178687 0.39764263 9 0 C7.35 1.65 5.7 3.3 4 5 C1.525 4.01 1.525 4.01 -1 3 C-0.67 2.01 -0.34 1.02 0 0 Z " fill="#5F9AF0" transform="translate(332,481)"/>
<path d="M0 0 C4.14298667 0.59834725 7.18194377 2.00664285 10.8125 4.0625 C11.78832031 4.61035156 12.76414063 5.15820312 13.76953125 5.72265625 C14.50558594 6.14417969 15.24164063 6.56570313 16 7 C12.44573552 8.18475483 11.15605738 7.49053607 7.8515625 5.96484375 C5.0551821 4.50765818 2.54617258 2.86305311 0 1 C0 0.67 0 0.34 0 0 Z " fill="#84C8ED" transform="translate(216,408)"/>
<path d="M0 0 C0.33 0.99 0.66 1.98 1 3 C-0.26342488 4.48549956 -1.5360103 5.96321189 -2.8125 7.4375 C-3.87404297 8.67306641 -3.87404297 8.67306641 -4.95703125 9.93359375 C-7 12 -7 12 -10 13 C-10 10 -10 10 -8.3203125 8.28125 C-7.59585937 7.6934375 -6.87140625 7.105625 -6.125 6.5 C-3.51805546 4.36959371 -1.89331428 2.83997143 0 0 Z " fill="#DFFAF8" transform="translate(485,394)"/>
<path d="M0 0 C0.66 0 1.32 0 2 0 C2.66 1.65 3.32 3.3 4 5 C4.66 5 5.32 5 6 5 C7.7143618 6.95927063 9.38405168 8.95880212 11 11 C10.67 11.66 10.34 12.32 10 13 C5.68496083 9.00415551 2.2948164 5.53455721 0 0 Z " fill="#D6FCFE" transform="translate(150,355)"/>
<path d="M0 0 C3.40858586 3.40858586 3.93008394 8.32201465 4.125 13 C4.08375 13.66 4.0425 14.32 4 15 C1.1496974 11.79054398 0.56548301 9.50011452 0.3125 5.25 C0.24675781 4.26515625 0.18101562 3.2803125 0.11328125 2.265625 C0.07589844 1.51796875 0.03851563 0.7703125 0 0 Z " fill="#BEF2EA" transform="translate(149,307)"/>
<path d="M0 0 C2 3 2 3 1.875 5.4375 C0.83687696 8.47771747 -0.60145094 9.91094114 -3 12 C-2.25749403 7.91621717 -1.17076699 3.98060777 0 0 Z " fill="#7BC9F1" transform="translate(387,304)"/>
<path d="M0 0 C1.13199353 0.9080162 2.25532363 1.82683826 3.375 2.75 C4.00148437 3.26046875 4.62796875 3.7709375 5.2734375 4.296875 C7.08312318 6.08199481 8.00117455 7.67949644 9 10 C8.01 10.33 7.02 10.66 6 11 C5.9175 10.21625 5.835 9.4325 5.75 8.625 C5.5025 7.75875 5.255 6.8925 5 6 C3.68352881 5.30062468 2.34977849 4.63270867 1 4 C0.375 1.94140625 0.375 1.94140625 0 0 Z " fill="#A0E3EA" transform="translate(187,327)"/>
<path d="M0 0 C0 3.99904969 -1.72586967 5.80200422 -4 9 C-4.66 8.01 -5.32 7.02 -6 6 C-4.95125002 3.37812506 -4.35068687 2.20628639 -1.875 0.75 C-1.25625 0.5025 -0.6375 0.255 0 0 Z " fill="#B3ECF5" transform="translate(373,234)"/>
<path d="M0 0 C2.0625 0.4375 2.0625 0.4375 4 1 C1.50754779 3.75950066 -0.20300991 5.62030099 -4 6 C-4.66 5.67 -5.32 5.34 -6 5 C-6 4.34 -6 3.68 -6 3 C-5.195625 2.690625 -4.39125 2.38125 -3.5625 2.0625 C-1.10919595 1.23664655 -1.10919595 1.23664655 0 0 Z " fill="#D6F2FD" transform="translate(336,485)"/>
<path d="M0 0 C4.9723422 1.49170266 9.41845739 3.60457417 14 6 C10.23375329 7.25541557 8.62811066 6.37061958 5 5 C5 4.34 5 3.68 5 3 C2.525 2.01 2.525 2.01 0 1 C0 0.67 0 0.34 0 0 Z " fill="#BDE1FD" transform="translate(244,462)"/>
<path d="M0 0 C0.99 0.66 1.98 1.32 3 2 C-1.455 4.97 -1.455 4.97 -6 8 C-6.33 7.01 -6.66 6.02 -7 5 C-6.01 4.67 -5.02 4.34 -4 4 C-2.62804426 2.70644173 -1.28817344 1.37701298 0 0 Z " fill="#D0ECFD" transform="translate(374,422)"/>
<path d="M0 0 C1.32 0.33 2.64 0.66 4 1 C4 1.66 4 2.32 4 3 C4.66 3 5.32 3 6 3 C7.38938077 4.96147874 8.7260411 6.96166576 10 9 C9.67 9.66 9.34 10.32 9 11 C7.49703315 9.35687553 5.99769719 7.71042916 4.5 6.0625 C3.6646875 5.14597656 2.829375 4.22945313 1.96875 3.28515625 C0 1 0 1 0 0 Z " fill="#9FE3EA" transform="translate(169,351)"/>
<path d="M0 0 C1.98 0.66 3.96 1.32 6 2 C6 2.66 6 3.32 6 4 C7.65 4.33 9.3 4.66 11 5 C11.33 5.99 11.66 6.98 12 8 C7.44328408 6.48109469 3.68276708 4.04597738 0 1 C0 0.67 0 0.34 0 0 Z " fill="#D4F7FE" transform="translate(177,382)"/>
<path d="M0 0 C0.99 0.33 1.98 0.66 3 1 C0.03 3.64 -2.94 6.28 -6 9 C-6 8.01 -6 7.02 -6 6 C-5.34 6 -4.68 6 -4 6 C-4 5.01 -4 4.02 -4 3 C-2.68 2.67 -1.36 2.34 0 2 C0 1.34 0 0.68 0 0 Z " fill="#B9CBEF" transform="translate(444,358)"/>
<path d="M0 0 C0.66 0.99 1.32 1.98 2 3 C1.04737966 4.48285242 0.08771595 5.96118201 -0.875 7.4375 C-1.40867187 8.26121094 -1.94234375 9.08492188 -2.4921875 9.93359375 C-4 12 -4 12 -6 13 C-4.31326082 8.50202887 -2.18326108 4.27113698 0 0 Z " fill="#C0E5D6" transform="translate(484,334)"/>
<path d="M0 0 C0.9659657 2.60810739 1.02770914 3.89420147 0.3125 6.625 C-1.16625774 9.30084735 -2.17750049 9.96508351 -5 11 C-3.55049545 7.2089881 -1.84827434 3.6125362 0 0 Z " fill="#B3EDEC" transform="translate(234,207)"/>
<path d="M0 0 C3.76547669 3.76547669 3.91348469 5.90173585 5 11 C4.01 10.67 3.02 10.34 2 10 C1.34 6.7 0.68 3.4 0 0 Z " fill="#7BB2E9" transform="translate(287,415)"/>
<path d="M0 0 C2.625 -0.1875 2.625 -0.1875 5 0 C2.19195732 2.96404505 -0.18315774 5.44499019 -4 7 C-2.79618552 4.50638429 -1.54571278 2.31856917 0 0 Z " fill="#CEEBCE" transform="translate(510,261)"/>
<path d="M0 0 C2.24497221 2.24497221 2.37003419 2.96027349 2.75 6 C2.84796875 6.70125 2.9459375 7.4025 3.046875 8.125 C3 10 3 10 1 12 C0.01751476 7.9472484 -0.08159574 4.16138263 0 0 Z " fill="#6BA5E9" transform="translate(291,426)"/>
<path d="M0 0 C3.35661695 1.67830848 4.32506861 4.70789347 6 8 C5.67 8.66 5.34 9.32 5 10 C4.34 8.68 3.68 7.36 3 6 C2.34 6 1.68 6 1 6 C0.34 4.35 -0.32 2.7 -1 1 C-0.67 0.67 -0.34 0.34 0 0 Z " fill="#7BBAEC" transform="translate(248,410)"/>
<path d="M0 0 C0.66 0.33 1.32 0.66 2 1 C-0.66666667 3.66666667 -3.33333333 6.33333333 -6 9 C-6.66 8.67 -7.32 8.34 -8 8 C-5.36 5.36 -2.72 2.72 0 0 Z " fill="#7FACE9" transform="translate(366,431)"/>
<path d="M0 0 C0 0.99 0 1.98 0 3 C-1.53125 4.38671875 -1.53125 4.38671875 -3.5 5.6875 C-4.47453125 6.34298828 -4.47453125 6.34298828 -5.46875 7.01171875 C-5.9740625 7.33785156 -6.479375 7.66398437 -7 8 C-6.40168778 4.39497955 -6.12580062 4.09242495 -2.9375 1.75 C-1.968125 1.1725 -0.99875 0.595 0 0 Z " fill="#84B4EB" transform="translate(376,424)"/>
<path d="M0 0 C4.03384128 2.07143201 5.92856799 3.96615872 8 8 C4.63820226 6.55922954 2.40843732 4.75249979 0 2 C0 1.34 0 0.68 0 0 Z " fill="#82B8EB" transform="translate(264,384)"/>
<path d="M0 0 C0.33 0.99 0.66 1.98 1 3 C-1.31 4.98 -3.62 6.96 -6 9 C-6.66 8.67 -7.32 8.34 -8 8 C-5.36 5.36 -2.72 2.72 0 0 Z " fill="#CBF1FD" transform="translate(380,320)"/>
<path d="M0 0 C0.66 0.33 1.32 0.66 2 1 C-1.465 3.97 -1.465 3.97 -5 7 C-5.66 6.34 -6.32 5.68 -7 5 C-4.69 3.35 -2.38 1.7 0 0 Z " fill="#CCF2FA" transform="translate(453,422)"/>
<path d="M0 0 C0.99 0.66 1.98 1.32 3 2 C-2.75 6 -2.75 6 -5 6 C-4.67 5.01 -4.34 4.02 -4 3 C-3.34 3 -2.68 3 -2 3 C-2 2.34 -2 1.68 -2 1 C-1.34 0.67 -0.68 0.34 0 0 Z " fill="#DDF5FD" transform="translate(426,392)"/>
<path d="M0 0 C0.61875 0.78375 1.2375 1.5675 1.875 2.375 C3.89858661 4.96837647 3.89858661 4.96837647 6 7 C5.625 9.125 5.625 9.125 5 11 C4.15841464 9.73461631 3.32700252 8.46246221 2.5 7.1875 C1.80390625 6.12595703 1.80390625 6.12595703 1.09375 5.04296875 C0 3 0 3 0 0 Z " fill="#DEFCFD" transform="translate(140,338)"/>
<path d="M0 0 C0.33 0 0.66 0 1 0 C1 1.65 1 3.3 1 5 C0.01 5.495 0.01 5.495 -1 6 C-2.13350534 8.01669827 -2.13350534 8.01669827 -3 10 C-3.66 10 -4.32 10 -5 10 C-3.66654496 6.40992874 -2.1056769 3.20429093 0 0 Z " fill="#D6F8FE" transform="translate(393,302)"/>
<path d="M0 0 C2.50037734 2.17424117 3.43628586 3.73045798 4 7 C2.68 7.33 1.36 7.66 0 8 C0 5.36 0 2.72 0 0 Z " fill="#B1EBFD" transform="translate(243,266)"/>
<path d="M0 0 C0.66 0.66 1.32 1.32 2 2 C0.75023244 5.65316671 0.32901247 6.78065836 -3 9 C-2.30058404 5.85262818 -1.23921302 2.97411124 0 0 Z " fill="#E7F7D5" transform="translate(301,96)"/>
<path d="M0 0 C0.763125 0.309375 1.52625 0.61875 2.3125 0.9375 C4.18789677 1.67893593 6.08684652 2.36228217 8 3 C8.33 3.99 8.66 4.98 9 6 C2.42696629 4.1011236 2.42696629 4.1011236 0 1 C0 0.67 0 0.34 0 0 Z " fill="#66A4EB" transform="translate(255,465)"/>
<path d="M0 0 C0.66 0.33 1.32 0.66 2 1 C-0.06756277 3.7972908 -1.14440371 4.02692273 -4.6875 4.6875 C-5.780625 4.790625 -6.87375 4.89375 -8 5 C-5.45378681 2.99940392 -3.01962385 1.20784954 0 0 Z " fill="#C1EBFB" transform="translate(432,435)"/>
<path d="M0 0 C0.66 0.33 1.32 0.66 2 1 C0.375 7.75 0.375 7.75 -3 10 C-2.01 6.7 -1.02 3.4 0 0 Z " fill="#E9F8D6" transform="translate(307,80)"/>
</svg>
